<svg xmlns="http://www.w3.org/2000/svg" viewBox="0 0 128 128">
  <!-- Background circle -->
  <circle cx="64" cy="64" r="60" fill="#4A90E2"/>
  
  <!-- Document stack -->
  <rect x="35" y="30" width="45" height="58" fill="white" rx="4"/>
  <rect x="40" y="25" width="45" height="58" fill="#E8F0FE" rx="4"/>
  <rect x="45" y="20" width="45" height="58" fill="white" rx="4"/>
  
  <!-- Chat bubble -->
  <path d="M75 45 Q90 45 90 60 L90 75 Q90 90 75 90 L60 90 L50 100 L50 90 L45 90 Q30 90 30 75 L30 60 Q30 45 45 45 Z" 
        fill="#4A90E2" stroke="white" stroke-width="2"/>
  
  <!-- Question mark -->
  <path d="M57 55c0-4 3-7 7-7s7 3 7 7c0 2-1 4-3 5l-2 2v4h-4v-5l3-3c1-1 2-2 2-3 0-2-1-3-3-3s-3 1-3 3h-4zm3 16v-4h4v4h-4z" 
        fill="white"/>
</svg>